<svg width="21" height="25" viewBox="0 0 21 25" fill="none" xmlns="http://www.w3.org/2000/svg">
<g id="icon / jam-icons / outline &#38; logos / chevron-right">
<path id="Vector" d="M11.6501 12.571L7.31887 7.62101C7.15948 7.43241 7.07128 7.17981 7.07328 6.91761C7.07527 6.65541 7.16729 6.4046 7.32952 6.21919C7.49176 6.03379 7.71122 5.92862 7.94064 5.92634C8.17006 5.92406 8.39109 6.02485 8.55612 6.20701L13.506 11.864C13.67 12.0515 13.7622 12.3058 13.7622 12.571C13.7622 12.8362 13.67 13.0905 13.506 13.278L8.55612 18.935C8.39109 19.1172 8.17006 19.218 7.94064 19.2157C7.71122 19.2134 7.49176 19.1082 7.32952 18.9228C7.16729 18.7374 7.07527 18.4866 7.07328 18.2244C7.07128 17.9622 7.15948 17.7096 7.31887 17.521L11.6501 12.571Z" fill="#E8EDFF"/>
</g>
</svg>
