<svg width="21" height="25" viewBox="0 0 21 25" fill="none" xmlns="http://www.w3.org/2000/svg">
<g id="icon / jam-icons / outline &#38; logos / chevron-left">
<path id="Vector" d="M9.41284 12.5L13.7441 17.45C13.8277 17.5422 13.8943 17.6526 13.9402 17.7746C13.986 17.8966 14.0102 18.0278 14.0112 18.1606C14.0122 18.2934 13.9901 18.4251 13.9461 18.548C13.9021 18.6708 13.8371 18.7825 13.7549 18.8764C13.6728 18.9703 13.5751 19.0445 13.4676 19.0948C13.36 19.1451 13.2448 19.1704 13.1286 19.1692C13.0124 19.1681 12.8976 19.1405 12.7909 19.0881C12.6841 19.0357 12.5876 18.9595 12.5068 18.864L7.55697 13.207C7.39293 13.0195 7.30078 12.7652 7.30078 12.5C7.30078 12.2348 7.39293 11.9805 7.55697 11.793L12.5068 6.136C12.6719 5.95384 12.8929 5.85305 13.1223 5.85532C13.3517 5.8576 13.5712 5.96277 13.7334 6.14818C13.8957 6.33359 13.9877 6.5844 13.9897 6.8466C13.9917 7.10879 13.9035 7.3614 13.7441 7.55L9.41284 12.5Z" fill="#E8EDFF"/>
</g>
</svg>
