<svg width="56" height="56" viewBox="0 0 56 56" fill="none" xmlns="http://www.w3.org/2000/svg">
<path d="M21.4146 33.4995C21.8549 33.494 37.7234 33.4995 37.7234 33.4995C38.5691 33.5023 39.3934 33.2332 40.0748 32.732C40.7561 32.2307 41.2585 31.5238 41.5078 30.7155L44.7783 20.2481C44.8156 20.1294 44.8243 20.0035 44.8039 19.8807C44.7835 19.758 44.7344 19.6418 44.6607 19.5415C44.587 19.4412 44.4908 19.3597 44.3797 19.3035C44.2687 19.2474 44.146 19.2182 44.0216 19.2183H18.4519C17.6357 16.6096 15.0141 15.0156 12.2925 15.2513C11.2629 15.2624 11.2478 16.8277 12.2925 16.8381H13.0072C13.9615 16.8402 14.8858 17.1712 15.6247 17.7753C16.3635 18.3793 16.8718 19.2195 17.0638 20.1545L18.2972 30.0244C18.4218 31.0082 18.9113 31.9092 19.6687 32.549C17.9038 33.8835 18.5693 36.8842 20.7205 37.3681C19.3649 39.3659 20.9617 42.2999 23.3977 42.2269C25.7821 42.292 27.3948 39.4754 26.1288 37.4665H36.5303C35.262 39.4722 36.8794 42.2952 39.2622 42.2269C41.0121 42.2269 42.4351 40.8036 42.4351 39.0533C42.4351 37.3031 41.0121 35.8797 39.2622 35.8797H21.4146C19.8528 35.8504 19.8488 33.5289 21.4146 33.4995ZM18.7438 20.8051H42.9428L39.9944 30.2426C39.8445 30.7275 39.543 31.1515 39.1342 31.4522C38.7253 31.7528 38.2308 31.9143 37.7234 31.9127H22.2332C21.0355 31.9127 20.0201 31.0162 19.8718 29.8276L18.7438 20.8051ZM24.9841 39.0533C24.9469 41.1384 21.8477 41.1384 21.8112 39.0533C21.8485 36.9683 24.9477 36.9683 24.9841 39.0533ZM40.8487 39.0533C40.8114 41.1384 37.7131 41.1384 37.6758 39.0533C37.7131 36.9683 40.8114 36.9683 40.8487 39.0533Z" fill="#E8EDFF"/>
</svg>
