<svg width="86" height="74" viewBox="0 0 86 74" fill="none" xmlns="http://www.w3.org/2000/svg">
<g id="Frame" clip-path="url(#clip0_169_1690)">
<g id="Group">
<g id="Group_2">
<path id="Vector" fill-rule="evenodd" clip-rule="evenodd" d="M35.7786 50.5815C37.2025 57.041 41.5935 61.666 47.146 64.5174C53.3723 67.7123 61.0526 68.6275 67.3637 67.5023C69.5394 67.0076 71.6259 66.2973 73.6504 65.3687C76.5612 64.0308 79.3204 62.3043 82.0057 60.38C82.2723 60.2147 82.35 59.8583 82.1878 59.5913C82.0193 59.3206 81.673 59.2392 81.4025 59.4114C79.0694 60.6816 76.7058 61.7975 74.2763 62.7019C71.8611 63.5964 69.4036 64.2384 66.8586 64.5288C61.1525 65.4653 54.2418 64.5203 48.6489 61.5909C44.0542 59.1833 40.3415 55.3971 39.1018 50.0838C40.4953 49.8032 41.8603 49.4241 43.1701 48.9036C45.7028 47.8946 48.0375 46.3699 49.9944 44.034C51.37 42.3932 52.853 39.7379 53.1482 37.3179C53.4106 35.1618 52.81 33.1822 50.9045 31.8626C47.0959 29.2341 43.4238 30.5428 40.5511 33.7088C37.3136 37.2843 35.2195 43.3354 35.3471 47.2584C33.968 47.4104 32.5781 47.4924 31.2089 47.5681C25.5477 47.8647 19.8879 46.0277 15.1839 42.4624C10.8242 39.1598 7.28047 34.3857 5.30553 28.4653C3.64358 23.72 3.72248 18.6849 4.48635 14.1367C5.01345 10.975 5.92226 8.07028 6.87763 5.60291C7.74652 3.35922 8.5737 1.48369 9.52679 0.219018C9.57122 0.171712 9.57473 0.0916445 9.52493 0.0446376C9.47513 -0.00236931 9.39768 -0.00151382 9.35324 0.0457914C8.0441 1.06832 6.55451 2.62513 5.22981 4.76972C3.74853 7.17049 2.53718 10.2289 1.73959 13.5627C0.555059 18.5429 0.515725 24.1755 2.19554 29.4966C4.3871 36.1076 8.3414 41.4291 13.1962 45.118C18.5348 49.1684 24.9676 51.2512 31.3986 50.9249C32.8324 50.8409 34.3077 50.7444 35.7786 50.5815ZM38.6734 46.7259C39.7812 46.481 40.8678 46.1692 41.9131 45.7513C43.9478 44.9381 45.826 43.7152 47.4007 41.8335C48.2594 40.8062 49.1963 39.2586 49.6118 37.7108C49.9234 36.5499 50.0032 35.3464 48.9863 34.6496C46.776 33.1175 44.7026 34.1456 43.0343 35.9822C40.4598 38.8097 38.7106 43.5093 38.6734 46.7259Z" fill="#E8EDFF"/>
</g>
<g id="Group_3">
<path id="Vector_2" fill-rule="evenodd" clip-rule="evenodd" d="M80.907 59.3346C80.2173 60.1876 79.5251 61.03 78.8379 61.8935C78.0339 62.8996 77.226 63.9127 76.4695 64.9554C74.5258 67.6232 72.7688 70.3532 70.9653 73.0746C70.77 73.3089 70.797 73.6624 71.0325 73.8624C71.268 74.0624 71.6173 74.0358 71.8126 73.8015C73.8066 71.9209 75.8461 70.1396 77.8471 68.2174C78.6954 67.4012 79.5308 66.5777 80.3268 65.7039C82.1045 63.7531 83.703 61.6532 85.2768 59.5664C85.4672 59.311 85.7298 58.8415 85.8304 58.4155C85.9419 57.941 85.9031 57.4894 85.7537 57.1107C85.6092 56.7532 85.3338 56.311 84.6997 56.0452C84.4167 55.9273 83.781 55.7976 82.8878 55.8023C79.9613 55.8289 72.8286 56.7779 71.3559 56.941L68.4819 57.4547C68.3198 57.4981 68.0753 57.5213 67.8538 57.6674C67.5583 57.8529 67.2198 58.0683 67.0892 58.2943C66.9903 58.4655 67.2348 58.5611 67.1058 58.5323C67.0066 58.5115 67.1388 58.6975 67.1616 58.6285C67.2408 58.3728 67.3003 58.8182 67.3893 58.7234C67.6221 58.4834 67.4005 58.9857 67.645 58.9625C67.7369 58.9517 67.596 59.0621 67.6929 59.0724C67.8257 59.0943 67.5688 59.1834 67.7076 59.2544C67.791 59.3026 67.5751 59.3058 67.666 59.3857C67.7311 59.4507 67.4778 59.3409 67.5656 59.4556C67.6471 59.5666 67.4629 59.3962 67.4629 59.3962C67.4629 59.3962 67.4964 59.5161 67.342 59.2351C67.3929 59.1914 67.3964 59.1112 67.3466 59.0641C67.3006 59.0102 67.2231 59.0111 67.1722 59.0547C66.4962 58.6094 67.0729 59.0339 66.7736 58.9889C66.6639 58.9712 66.7893 59.0802 66.7142 59.0916C66.314 59.1618 66.9048 59.2656 66.747 59.4942C66.6852 59.5864 66.871 59.5019 66.8309 59.6157C66.7602 59.8123 67.0237 59.4896 67.0902 59.7747C67.1247 59.9224 67.1812 59.6171 67.3594 59.8571C67.4852 60.0394 67.3183 59.943 67.7006 60.0816C67.9747 60.1851 68.5414 60.0193 68.7943 60.0558L71.6261 59.9561C72.8019 59.8772 77.6188 59.4538 80.907 59.3346Z" fill="#E8EDFF"/>
</g>
</g>
</g>
<defs>
<clipPath id="clip0_169_1690">
<rect width="85" height="74" fill="white" transform="translate(0.893555)"/>
</clipPath>
</defs>
</svg>
