<svg width="28" height="20" viewBox="0 0 28 20" fill="none" xmlns="http://www.w3.org/2000/svg">
<g id="Group">
<path id="Vector" d="M27.7534 1.56287L19.2615 10L27.7534 18.4371C27.9069 18.1163 28 17.7616 28 17.3828V2.61719C28 2.23837 27.9069 1.88372 27.7534 1.56287ZM25.5391 0.15625H2.46094C2.08212 0.15625 1.72747 0.249383 1.40662 0.402891L12.2601 11.2016C13.2197 12.1613 14.7803 12.1613 15.7399 11.2016L26.5934 0.402891C26.2725 0.249383 25.9179 0.15625 25.5391 0.15625ZM0.246641 1.56287C0.0931328 1.88372 0 2.23837 0 2.61719V17.3828C0 17.7616 0.0931328 18.1163 0.246641 18.4371L8.73846 10L0.246641 1.56287Z" fill="#496192"/>
<path id="Vector_2" d="M18.1012 11.1599L16.8995 12.3616C15.3005 13.9606 12.6987 13.9606 11.0997 12.3616L9.89807 11.1599L1.40625 19.597C1.7271 19.7506 2.08175 19.8437 2.46057 19.8437H25.5387C25.9175 19.8437 26.2722 19.7506 26.593 19.597L18.1012 11.1599Z" fill="#496192"/>
</g>
</svg>
