<svg width="60" height="60" viewBox="0 0 60 60" fill="none" xmlns="http://www.w3.org/2000/svg">
<rect width="60" height="60" fill="#496192"/>
<g clip-path="url(#clip0_2073_592)">
<path d="M41.0002 8H19.0007C12.9514 8 8.00098 12.9504 8.00098 18.9997V41.0003C8.00098 47.048 12.9514 52 19.0007 52H41.0002C47.0495 52 51.9999 47.048 51.9999 41.0003V18.9997C51.9999 12.9504 47.0495 8 41.0002 8ZM48.3331 41.0003C48.3331 45.0427 45.0448 48.3332 41.0002 48.3332H19.0007C14.9578 48.3332 11.6677 45.0427 11.6677 41.0003V18.9997C11.6677 14.9563 14.9578 11.6668 19.0007 11.6668H41.0002C45.0448 11.6668 48.3331 14.9563 48.3331 18.9997V41.0003Z" fill="#011845"/>
<path d="M41.9189 20.8329C43.4376 20.8329 44.6688 19.6017 44.6688 18.0829C44.6688 16.5642 43.4376 15.333 41.9189 15.333C40.4001 15.333 39.1689 16.5642 39.1689 18.0829C39.1689 19.6017 40.4001 20.8329 41.9189 20.8329Z" fill="#011845"/>
<path d="M30.0007 18.9998C23.9244 18.9998 19.001 23.9237 19.001 29.9995C19.001 36.073 23.9244 41.0003 30.0007 41.0003C36.0753 41.0003 41.0004 36.073 41.0004 29.9995C41.0004 23.9237 36.0753 18.9998 30.0007 18.9998ZM30.0007 37.3335C25.9511 37.3335 22.6677 34.0502 22.6677 29.9995C22.6677 25.9488 25.9511 22.6665 30.0007 22.6665C34.0503 22.6665 37.3337 25.9488 37.3337 29.9995C37.3337 34.0502 34.0503 37.3335 30.0007 37.3335Z" fill="#011845"/>
</g>
<defs>
<clipPath id="clip0_2073_592">
<rect width="44" height="44" fill="white" transform="translate(8 8)"/>
</clipPath>
</defs>
</svg>
