<svg width="60" height="60" viewBox="0 0 60 60" fill="none" xmlns="http://www.w3.org/2000/svg">
<rect width="60" height="60" fill="#496192"/>
<path d="M11.5983 29.7691L20.4533 32.7762L41.4784 19.9227C41.7836 19.7371 42.0958 20.1509 41.8331 20.3929L25.9161 35.0436L25.3249 43.2454C25.3152 43.3828 25.3476 43.5199 25.4176 43.6385C25.4877 43.7571 25.5921 43.8516 25.7171 43.9095C25.8421 43.9673 25.9817 43.9858 26.1174 43.9625C26.2532 43.9392 26.3786 43.8752 26.4771 43.7789L31.3776 38.9596L40.3371 45.7411C41.3024 46.4726 42.7008 45.9569 42.9606 44.7744L49.199 16.4494C49.5551 14.8338 47.9711 13.4698 46.427 14.0611L11.5543 27.4151C10.4598 27.8344 10.49 29.3923 11.5983 29.7691Z" fill="#011845"/>
</svg>
