<svg width="60" height="60" viewBox="0 0 60 60" fill="none" xmlns="http://www.w3.org/2000/svg">
<rect width="60" height="60" fill="#496192"/>
<g clip-path="url(#clip0_180_2000)">
<path d="M51.7667 40.1197C51.7135 40.0048 51.6638 39.9096 51.6177 39.8333C50.8543 38.4584 49.3954 36.7708 47.242 34.77L47.1965 34.7242L47.1737 34.7017L47.1507 34.6787H47.1276C46.1503 33.747 45.5314 33.1206 45.2722 32.7999C44.798 32.1889 44.6918 31.5705 44.951 30.9439C45.1341 30.4705 45.8219 29.4707 47.0128 27.9432C47.6392 27.1337 48.1353 26.4849 48.5017 25.996C51.1441 22.4832 52.2897 20.2384 51.9382 19.2608L51.8017 19.0324C51.71 18.8948 51.4733 18.769 51.0919 18.6543C50.7097 18.5398 50.2211 18.5209 49.6253 18.5972L43.0277 18.6427C42.9208 18.6049 42.7682 18.6084 42.5694 18.6543L42.2714 18.7232L42.1566 18.7806L42.0655 18.8495C41.9891 18.8951 41.9051 18.9752 41.8133 19.0898C41.7221 19.204 41.6458 19.338 41.5848 19.4907C40.8665 21.3387 40.0498 23.0569 39.1333 24.6451C38.5681 25.5922 38.0491 26.413 37.5752 27.1079C37.1018 27.8026 36.7047 28.3145 36.3843 28.6426C36.0633 28.971 35.7736 29.2341 35.5135 29.4329C35.2538 29.6317 35.0555 29.7157 34.9182 29.685C34.7806 29.6542 34.651 29.6238 34.5283 29.5933C34.3146 29.4557 34.1428 29.2687 34.0132 29.032C33.883 28.7953 33.7954 28.4974 33.7496 28.1384C33.704 27.7793 33.6771 27.4704 33.6694 27.2106C33.6622 26.9512 33.6655 26.5843 33.681 26.1109C33.6969 25.6372 33.704 25.3167 33.704 25.1487C33.704 24.5683 33.7153 23.9383 33.738 23.2587C33.7611 22.579 33.7798 22.0406 33.7955 21.6439C33.8111 21.2467 33.8183 20.8266 33.8183 20.3837C33.8183 19.9408 33.7913 19.5934 33.738 19.3413C33.6848 19.089 33.6044 18.8431 33.4981 18.6082C33.391 18.3714 33.2342 18.1883 33.0285 18.0584C32.8223 17.9285 32.5661 17.8255 32.2611 17.7489C31.4515 17.5658 30.4207 17.4667 29.1681 17.4513C26.3275 17.4208 24.5023 17.6042 23.6928 18.0013C23.3721 18.1691 23.0819 18.3983 22.8224 18.6883C22.5474 19.0244 22.5091 19.2079 22.7076 19.238C23.6241 19.3753 24.2729 19.7037 24.6548 20.223L24.7924 20.4981C24.8994 20.6966 25.0063 21.0481 25.1132 21.552C25.22 22.0559 25.289 22.6133 25.3193 23.2239C25.3955 24.339 25.3955 25.2936 25.3193 26.0876C25.2428 26.882 25.1706 27.5004 25.1017 27.9433C25.0328 28.3862 24.9297 28.7451 24.7924 29.02C24.6548 29.2949 24.5632 29.4629 24.5173 29.5239C24.4715 29.5848 24.4333 29.6233 24.403 29.6384C24.2056 29.7144 23.9959 29.7534 23.7843 29.7532C23.5703 29.7532 23.3108 29.6461 23.0054 29.4322C22.7001 29.2183 22.3833 28.9245 22.0548 28.5502C21.7264 28.1759 21.356 27.6528 20.9435 26.9809C20.5313 26.309 20.1037 25.5149 19.6607 24.5985L19.2943 23.934C19.0652 23.5065 18.7523 22.884 18.3552 22.067C17.9578 21.2498 17.6066 20.4593 17.3013 19.6956C17.1792 19.3749 16.9959 19.1308 16.7516 18.9627L16.6369 18.8938C16.5607 18.8328 16.4383 18.7681 16.2705 18.6991C16.101 18.6298 15.9242 18.5799 15.7435 18.5503L9.46646 18.5959C8.82502 18.5959 8.3898 18.7412 8.16064 19.0314L8.06893 19.1687C8.02311 19.2452 8 19.3673 8 19.5354C8 19.7034 8.04582 19.9096 8.13753 20.1538C9.05387 22.3074 10.0504 24.3844 11.127 26.3851C12.2037 28.3858 13.1393 29.9974 13.9332 31.2185C14.7274 32.4405 15.5368 33.5938 16.3616 34.6778C17.1864 35.7622 17.7323 36.4572 17.9995 36.7625C18.2669 37.0684 18.477 37.2971 18.6297 37.4498L19.2025 37.9995C19.569 38.3661 20.1073 38.8052 20.8175 39.3167C21.5278 39.8285 22.3143 40.3324 23.1771 40.8292C24.0402 41.3252 25.0442 41.7299 26.1898 42.0429C27.3352 42.3563 28.4501 42.482 29.5345 42.4213H32.1691C32.7034 42.3752 33.1082 42.2072 33.3834 41.9172L33.4745 41.8024C33.5358 41.7112 33.5932 41.5696 33.6462 41.379C33.6998 41.1881 33.7264 40.9778 33.7264 40.7491C33.7108 40.0925 33.7607 39.5007 33.875 38.9738C33.9892 38.4471 34.1193 38.05 34.2649 37.7826C34.4104 37.5154 34.5745 37.2899 34.7572 37.1071C34.9403 36.924 35.0708 36.813 35.1474 36.7748C35.2234 36.7364 35.2842 36.7103 35.33 36.6946C35.6965 36.5725 36.1279 36.6908 36.6247 37.05C37.1212 37.4089 37.5868 37.8521 38.0223 38.3788C38.4576 38.906 38.9806 39.4974 39.5914 40.154C40.2026 40.8108 40.737 41.2991 41.195 41.6203L41.653 41.8952C41.9589 42.0786 42.356 42.2466 42.8448 42.3993C43.3328 42.552 43.7603 42.5901 44.1274 42.5138L49.9918 42.4224C50.5719 42.4224 51.0232 42.3263 51.3434 42.1358C51.6642 41.9449 51.8548 41.7346 51.9162 41.5058C51.9775 41.2768 51.9808 41.017 51.9279 40.7265C51.8735 40.4368 51.82 40.2342 51.7667 40.1197Z" fill="#011845"/>
</g>
<defs>
<clipPath id="clip0_180_2000">
<rect width="44" height="44" fill="white" transform="translate(8 8)"/>
</clipPath>
</defs>
</svg>
