<svg width="60" height="60" viewBox="0 0 60 60" fill="none" xmlns="http://www.w3.org/2000/svg">
<rect width="60" height="60" fill="#496192"/>
<path d="M49.775 20.0818C49.2997 18.3146 47.9063 16.9216 46.1394 16.4457C42.9115 15.5625 29.9995 15.5625 29.9995 15.5625C29.9995 15.5625 17.088 15.5625 13.86 16.4122C12.1271 16.8876 10.6998 18.3149 10.2245 20.0818C9.375 23.3094 9.375 30.0033 9.375 30.0033C9.375 30.0033 9.375 36.7309 10.2245 39.9248C10.7003 41.6917 12.0931 43.0848 13.8603 43.5606C17.1219 44.4441 30 44.4441 30 44.4441C30 44.4441 42.9115 44.4441 46.1394 43.5943C47.9066 43.1187 49.2997 41.7257 49.7755 39.9588C50.6247 36.7308 50.6247 30.0372 50.6247 30.0372C50.6247 30.0372 50.6587 23.3094 49.775 20.0818ZM25.8885 36.1873V23.8192L36.6255 30.0032L25.8885 36.1873Z" fill="#011845"/>
</svg>
